<svg xmlns="http://www.w3.org/2000/svg" viewBox="0 0 1631 1631">
  <g transform="translate(329.5 1499.8) scale(1 -1)">
    <path fill="#EF7A26" d="M826.474609375 237.11837768554688Q826.474609375 116.11837768554688 719.4876708984375 42.66441345214844Q612.500732421875 -30.78955078125 433.5926208496094 -30.78955078125Q265.3819885253906 -30.78955078125 172.7832489013672 43.17756652832031Q80.18450927734375 117.14468383789062 80.18450927734375 242.02630615234375Q80.18450927734375 311.894775390625 116.59243774414062 354.8092803955078Q153.0003662109375 397.7237854003906 214.31622314453125 397.7237854003906Q267.65838623046875 397.7237854003906 301.30316162109375 362.3027038574219Q334.94793701171875 326.8816223144531 334.94793701171875 262.52630615234375V193.09207153320312Q334.94793701171875 137.5526123046875 360.9347839355469 106.52630615234375Q386.921630859375 75.5 447.9084777832031 75.5Q507.7769470214844 75.5 543.6980285644531 107.04603576660156Q579.6191101074219 138.59207153320312 579.6191101074219 199.68414306640625Q579.6191101074219 248.18414306640625 561.4019927978516 285.6972961425781Q543.1848754882812 323.21044921875 518.9874877929688 364.43414306640625Q494.79010009765625 405.6578369140625 476.57298278808594 461.3946838378906Q458.3558654785156 517.1315307617188 458.3558654785156 601.1183776855469V1168.3419799804688Q458.3558654785156 1207.1446838378906 438.3426208496094 1226.3157653808594Q418.3293762207031 1245.4868469238281 382.13189697265625 1254.9473876953125L332.2241516113281 1268.5526123046875Q304.342529296875 1277.5526123046875 291.11883544921875 1294.6973876953125Q277.8951416015625 1311.8421630859375 277.8951416015625 1336.8816223144531Q277.8951416015625 1366.3684692382812 296.36883544921875 1383.0790100097656Q314.842529296875 1399.78955078125 352.21099853515625 1399.78955078125H817.0403747558594Q854.9219970703125 1399.78955078125 873.1391143798828 1383.0790100097656Q891.3562316894531 1366.3684692382812 891.3562316894531 1336.8816223144531Q891.3562316894531 1289.894775390625 839.4614562988281 1268.4736938476562L797.1194763183594 1254.9868469238281Q766.6983947753906 1245.4868469238281 748.6325378417969 1226.3091888427734Q730.5666809082031 1207.1315307617188 730.5666809082031 1168.3814392089844V629.0920715332031Q730.5666809082031 553.0920715332031 745.0535278320312 501.84864807128906Q759.5403747558594 450.605224609375 778.5206451416016 411.11180114746094Q797.5009155273438 371.6183776855469 811.9877624511719 331.6183776855469Q826.474609375 291.6183776855469 826.474609375 237.11837768554688Z"/>
  </g>
</svg>
